<svg width="22" height="22" viewBox="0 0 22 22" fill="none" xmlns="http://www.w3.org/2000/svg">
<path d="M22 3.20833C22 3.96917 21.3858 4.58333 20.625 4.58333H1.375C0.614167 4.58333 0 3.96917 0 3.20833C0 2.4475 0.614167 1.83333 1.375 1.83333H20.625C21.3858 1.83333 22 2.4475 22 3.20833ZM5.95833 18.3333H1.375C0.614167 18.3333 0 18.9475 0 19.7083C0 20.4692 0.614167 21.0833 1.375 21.0833H5.95833C6.71917 21.0833 7.33333 20.4692 7.33333 19.7083C7.33333 18.9475 6.71917 18.3333 5.95833 18.3333ZM13.2917 10.0833H1.375C0.614167 10.0833 0 10.6975 0 11.4583C0 12.2192 0.614167 12.8333 1.375 12.8333H13.2917C14.0525 12.8333 14.6667 12.2192 14.6667 11.4583C14.6667 10.6975 14.0525 10.0833 13.2917 10.0833Z" fill="black"/>
</svg>
