<svg width="19" height="19" viewBox="0 0 19 19" fill="none" xmlns="http://www.w3.org/2000/svg">
<path d="M14.25 8.56583C14.04 8.56583 13.8387 8.64923 13.6902 8.7977C13.5417 8.94617 13.4583 9.14753 13.4583 9.35749V15.0417C13.4583 15.2516 13.3749 15.453 13.2264 15.6015C13.078 15.7499 12.8766 15.8333 12.6666 15.8333H3.95831C3.74835 15.8333 3.54699 15.7499 3.39852 15.6015C3.25005 15.453 3.16665 15.2516 3.16665 15.0417V6.33333C3.16665 6.12336 3.25005 5.922 3.39852 5.77353C3.54699 5.62507 3.74835 5.54166 3.95831 5.54166H9.64248C9.85244 5.54166 10.0538 5.45825 10.2023 5.30979C10.3507 5.16132 10.4341 4.95996 10.4341 4.74999C10.4341 4.54003 10.3507 4.33867 10.2023 4.1902C10.0538 4.04174 9.85244 3.95833 9.64248 3.95833H3.95831C3.32842 3.95833 2.72433 4.20855 2.27893 4.65395C1.83354 5.09935 1.58331 5.70344 1.58331 6.33333V15.0417C1.58331 15.6715 1.83354 16.2756 2.27893 16.721C2.72433 17.1664 3.32842 17.4167 3.95831 17.4167H12.6666C13.2965 17.4167 13.9006 17.1664 14.346 16.721C14.7914 16.2756 15.0416 15.6715 15.0416 15.0417V9.35749C15.0416 9.14753 14.9582 8.94617 14.8098 8.7977C14.6613 8.64923 14.4599 8.56583 14.25 8.56583ZM17.3533 2.07416C17.273 1.88072 17.1193 1.727 16.9258 1.64666C16.8306 1.6061 16.7284 1.58458 16.625 1.58333H11.875C11.665 1.58333 11.4637 1.66674 11.3152 1.8152C11.1667 1.96367 11.0833 2.16503 11.0833 2.37499C11.0833 2.58496 11.1667 2.78632 11.3152 2.93479C11.4637 3.08325 11.665 3.16666 11.875 3.16666H14.7171L6.5629 11.3129C6.48869 11.3865 6.4298 11.4741 6.38961 11.5705C6.34941 11.667 6.32872 11.7705 6.32872 11.875C6.32872 11.9795 6.34941 12.083 6.38961 12.1795C6.4298 12.2759 6.48869 12.3635 6.5629 12.4371C6.63649 12.5113 6.72405 12.5702 6.82052 12.6104C6.91699 12.6506 7.02047 12.6713 7.12498 12.6713C7.22949 12.6713 7.33296 12.6506 7.42944 12.6104C7.52591 12.5702 7.61347 12.5113 7.68706 12.4371L15.8333 4.28291V7.12499C15.8333 7.33496 15.9167 7.53632 16.0652 7.68479C16.2137 7.83325 16.415 7.91666 16.625 7.91666C16.8349 7.91666 17.0363 7.83325 17.1848 7.68479C17.3332 7.53632 17.4166 7.33496 17.4166 7.12499V2.37499C17.4154 2.27154 17.3939 2.16934 17.3533 2.07416Z" fill="black"/>
</svg>
