<svg width="24" height="24" viewBox="0 0 24 24" fill="none" xmlns="http://www.w3.org/2000/svg">
<path d="M12.7101 12L9.17006 8.46001C8.98381 8.27265 8.87926 8.0192 8.87926 7.75501C8.87926 7.49082 8.98381 7.23737 9.17006 7.05001C9.26302 6.95628 9.37362 6.88189 9.49548 6.83112C9.61734 6.78035 9.74804 6.75421 9.88006 6.75421C10.0121 6.75421 10.1428 6.78035 10.2646 6.83112C10.3865 6.88189 10.4971 6.95628 10.5901 7.05001L14.8301 11.29C14.9238 11.383 14.9982 11.4936 15.0489 11.6154C15.0997 11.7373 15.1259 11.868 15.1259 12C15.1259 12.132 15.0997 12.2627 15.0489 12.3846C14.9982 12.5064 14.9238 12.617 14.8301 12.71L10.5901 17C10.4966 17.0927 10.3858 17.166 10.264 17.2158C10.1421 17.2655 10.0117 17.2908 9.88006 17.29C9.74845 17.2908 9.61799 17.2655 9.49615 17.2158C9.37431 17.166 9.2635 17.0927 9.17006 17C8.98381 16.8126 8.87926 16.5592 8.87926 16.295C8.87926 16.0308 8.98381 15.7774 9.17006 15.59L12.7101 12Z" fill="black"/>
</svg>
